<?xml version="1.0" encoding="UTF-8"?> <svg xmlns="http://www.w3.org/2000/svg" width="32" height="32" viewBox="0 0 32 32" fill="none"><g clip-path="url(#8k2nvfsuja)" stroke="#686A6C" stroke-width="2.286" stroke-linecap="round" stroke-linejoin="round"><path d="M2 15h28M28 23v3a1 1 0 0 1-1 1h-3a1 1 0 0 1-1-1v-3M9 23v3a1 1 0 0 1-1 1H5a1 1 0 0 1-1-1v-3M8 19h2M22 19h2"></path><path d="m28 15-3.736-8.406A1 1 0 0 0 23.35 6H8.65a1 1 0 0 0-.914.594L4 15v8h24v-8z"></path></g><defs><clipPath id="8k2nvfsuja"><path fill="#fff" d="M0 0h32v32H0z"></path></clipPath></defs></svg> 