<?xml version="1.0" encoding="UTF-8"?> <svg xmlns="http://www.w3.org/2000/svg" width="28" height="28" viewBox="0 0 28 28" fill="none"><path d="M14 1a13 13 0 1 0 0 26.002A13 13 0 0 0 14 1zm0 .897a12.104 12.104 0 0 1 11.974 10.341 24.206 24.206 0 0 0-23.947 0A12.103 12.103 0 0 1 14 1.898H14zM2.345 17.192c.298-.034.597-.052.896-.054a8.516 8.516 0 0 1 8.517 8.517v.237a12.142 12.142 0 0 1-9.413-8.7h0zm10.31 8.835v-.372a9.413 9.413 0 0 0-9.414-9.414 10.34 10.34 0 0 0-1.12.072A12.272 12.272 0 0 1 1.897 14v-.654a23.283 23.283 0 0 1 24.17 0v.65c0 .776-.076 1.55-.224 2.313-.36-.042-.722-.064-1.084-.068a9.413 9.413 0 0 0-9.414 9.414v.372c-.894.1-1.796.1-2.69 0h0zm3.586-.134v-.238a8.516 8.516 0 0 1 8.517-8.517c.3.003.6.02.897.054a12.143 12.143 0 0 1-9.414 8.7h0z" stroke="#686A6C" stroke-width="1.2" stroke-linecap="round" stroke-linejoin="round"></path><path d="M16.241 15.345a2.242 2.242 0 1 0-4.484 0 2.242 2.242 0 0 0 4.484 0zm-2.24 1.345A1.345 1.345 0 1 1 14 14a1.345 1.345 0 0 1 0 2.69z" stroke="#686A6C" stroke-width="1.2" stroke-linecap="round" stroke-linejoin="round"></path></svg> 